<svg xmlns="http://www.w3.org/2000/svg" viewBox="0 -18 119.14 120.27">
    <defs>
        <style>
            .cls-1{fill:none;stroke:#d1d3d4;}.cls-1,.cls-3{stroke-miterlimit:10;}.cls-2{fill:#fff;}.cls-3{fill:#f8f8f8;stroke:#c2c4c6;}.cls-4{fill:#fb894a;}
        </style>
    </defs>
    <title>Asset 1</title>
    <g id="Layer_2" data-name="Layer 2">
        <g id="Layer_1-2" data-name="Layer 1">
            <path class="cls-1"
                  d="M71.67,76.53l3.91,2.21c3,1.69,7.56,1.81,10.23.27l20.75-12,5.8-3.36a4.54,4.54,0,0,0,1.08-.84c1.26-1.36,1-3.13-.86-4.48a5.76,5.76,0,0,0-.79-.53l-3.91-2.21-3.21,1.86Z"/>
            <path class="cls-1"
                  d="M92.27,69.87a5,5,0,0,0,4.44.12c1.16-.67,1-1.81-.25-2.54A4.94,4.94,0,0,0,92,67.33C90.86,68,91,69.14,92.27,69.87Z"/>
            <polygon class="cls-1"
                     points="6.82 39.83 9.01 41.07 71.67 76.53 104.67 57.45 107.88 55.59 43.02 18.89 11.17 37.31 11.17 37.32 6.82 39.83"/>
            <path class="cls-1"
                  d="M.5,36.75a5.34,5.34,0,0,0,2.35,4.44l0,0a5,5,0,0,0,.74.49L75.58,82.42c3,1.69,7.56,1.81,10.23.26l26.55-15.35a2.91,2.91,0,0,0,.29-.19,5.39,5.39,0,0,0,.78-.65.88.88,0,0,0,.13-.14,5.27,5.27,0,0,0-1-8c1.81,1.35,2.12,3.12.86,4.48a4.54,4.54,0,0,1-1.08.84L106.56,67,85.81,79c-2.67,1.54-7.25,1.42-10.23-.27l-3.91-2.21L9,41.07,6.82,39.83,3.64,38A5.58,5.58,0,0,1,2,36.7a2.59,2.59,0,0,1-.31-3.29A5.26,5.26,0,0,0,.5,36.75Z"/>
            <path class="cls-1"
                  d="M2,36.7A5.58,5.58,0,0,0,3.64,38l3.18,1.8,4.35-2.51h0L43,18.89l-3.17-1.8c-3-1.68-7.57-1.8-10.23-.26L3.39,32a1.13,1.13,0,0,0-.32.18,2.21,2.21,0,0,0-.32.21,2.2,2.2,0,0,0-.31.22L2.06,33a4,4,0,0,0-.28.31.63.63,0,0,0-.1.13A2.59,2.59,0,0,0,2,36.7Z"/>
            <polygon class="cls-2"
                     points="49.19 0.57 31.01 11.08 23.13 15.64 15.33 20.15 15.33 20.16 10.7 22.83 13.03 24.15 79.64 61.85 114.72 41.56 118.13 39.59 49.19 0.57"/>
            <path class="cls-3" d="M60.79,34.54"/>
            <path class="cls-3" d="M23.12,15.65"/>
            <polygon class="cls-3"
                     points="39.61 28.51 46.87 22.86 67.34 33.18 47.54 16.61 40.77 21.43 31.01 11.09 49.18 0.58 118.13 39.59 114.72 41.57 79.64 61.85 13.03 24.16 10.7 22.84 15.32 20.17 15.32 20.16 23.12 15.65 39.61 28.51"/>
            <polygon class="cls-4" points="0.97 62.76 19.51 52.03 24.7 54.97 6.15 65.69 0.97 62.76"/>
            <polygon class="cls-4" points="32.43 59.34 11.86 47.61 36.06 45.43 32.43 59.34"/>
        </g>
    </g>
</svg>