<svg xmlns="http://www.w3.org/2000/svg" viewBox="-2 0 119.48 120.17">
    <defs>
        <style>
            .cls-1{fill:none;stroke:#d1d3d4;}.cls-1,.cls-3{stroke-miterlimit:10;}.cls-2,.cls-3{fill:#fb894a;}.cls-3{stroke:#fff;}
        </style>
    </defs>
    <title>Asset 2</title>
    <g id="Layer_2" data-name="Layer 2">
        <g id="Layer_1-2" data-name="Layer 1">
            <path class="cls-1"
                  d="M71.67,112.43l3.91,2.21c3,1.69,7.56,1.81,10.23.27l20.75-12,5.8-3.36a4.54,4.54,0,0,0,1.08-.84c1.26-1.36,1-3.13-.86-4.48a5.76,5.76,0,0,0-.79-.53l-3.91-2.21-3.21,1.86Z"/>
            <path class="cls-1"
                  d="M92.27,105.77a5,5,0,0,0,4.44.12c1.16-.67,1-1.81-.25-2.54a4.94,4.94,0,0,0-4.44-.12C90.86,103.9,91,105,92.27,105.77Z"/>
            <polygon class="cls-1"
                     points="6.82 75.73 9.01 76.97 71.67 112.43 104.67 93.35 107.88 91.49 43.02 54.79 11.17 73.21 11.17 73.22 6.82 75.73"/>
            <path class="cls-1"
                  d="M.5,72.65a5.34,5.34,0,0,0,2.35,4.44l0,0a5,5,0,0,0,.74.49l71.94,40.71c3,1.69,7.56,1.81,10.23.26l26.55-15.35a2.91,2.91,0,0,0,.29-.19,5.39,5.39,0,0,0,.78-.65.88.88,0,0,0,.13-.14,5.27,5.27,0,0,0-1-8c1.81,1.35,2.12,3.12.86,4.48a4.54,4.54,0,0,1-1.08.84l-5.8,3.36-20.75,12c-2.67,1.54-7.25,1.42-10.23-.27l-3.91-2.21L9,77,6.82,75.73l-3.18-1.8A5.58,5.58,0,0,1,2,72.6a2.59,2.59,0,0,1-.31-3.29A5.26,5.26,0,0,0,.5,72.65Z"/>
            <path class="cls-1"
                  d="M2,72.6a5.58,5.58,0,0,0,1.65,1.33l3.18,1.8,4.35-2.51h0L43,54.79,39.85,53c-3-1.68-7.57-1.8-10.23-.26L3.39,67.91a1.13,1.13,0,0,0-.32.18,2.21,2.21,0,0,0-.32.21,2.2,2.2,0,0,0-.31.22l-.38.35a4,4,0,0,0-.28.31.63.63,0,0,0-.1.13A2.59,2.59,0,0,0,2,72.6Z"/>
            <path class="cls-2"
                  d="M84.22,72.17a6.11,6.11,0,0,0,6.11,6.11,6.11,6.11,0,0,0-6.11,6.11h0a6.11,6.11,0,0,0-6.11-6.11,6.11,6.11,0,0,0,6.11-6.11Z"/>
            <path class="cls-2" d="M63.63,78.28a8,8,0,0,0,8,8,8,8,0,0,0-8,8h-.05a8,8,0,0,0-8-8,8,8,0,0,0,8-8Z"/>
            <path class="cls-2"
                  d="M79.11,47.33a5.48,5.48,0,0,0,5.48,5.48,5.48,5.48,0,0,0-5.48,5.48h0a5.48,5.48,0,0,0-5.48-5.48,5.48,5.48,0,0,0,5.48-5.48Z"/>
            <polyline class="cls-2" points="48.27 48.56 60.18 65.03 36.25 75.73 31.91 55.88"/>
            <line class="cls-3" x1="45.54" y1="49.78" x2="56.19" y2="66.81"/>
            <line class="cls-3" x1="42.82" y1="51" x2="52.2" y2="68.6"/>
            <line class="cls-3" x1="40.09" y1="52.22" x2="48.21" y2="70.38"/>
            <path class="cls-2" d="M31.91,55.88l1.54-10.19L15.14,4.78A3.4,3.4,0,0,1,21.34,2L39.65,42.92l8.62,5.64"/>
            <line class="cls-3" x1="31.91" y1="55.88" x2="48.27" y2="48.56"/>
            <line class="cls-3" x1="33.45" y1="45.69" x2="39.65" y2="42.92"/>
            <line class="cls-3" x1="34.64" y1="54.66" x2="40.24" y2="73.95"/>
            <line class="cls-3" x1="37.36" y1="53.44" x2="44.23" y2="72.17"/>
        </g>
    </g>
</svg>