<svg xmlns="http://www.w3.org/2000/svg" viewBox="0 -2 119.14 120.51">
    <defs>
        <style>
            .cls-1{fill:none;stroke:#d1d3d4;}.cls-1,.cls-2{stroke-miterlimit:10;}.cls-2{fill:#f8f8f8;stroke:#c2c4c6;}.cls-3{fill:#fb894a;}
        </style>
    </defs>
    <title>Asset 3</title>
    <g id="Layer_2" data-name="Layer 2">
        <g id="Layer_1-2" data-name="Layer 1">
            <path class="cls-1"
                  d="M71.67,108.77,75.58,111c3,1.69,7.56,1.81,10.23.27l20.75-12,5.8-3.36a4.54,4.54,0,0,0,1.08-.84c1.26-1.36,1-3.13-.86-4.48a5.76,5.76,0,0,0-.79-.53l-3.91-2.21-3.21,1.86Z"/>
            <path class="cls-1"
                  d="M92.27,102.11a5,5,0,0,0,4.44.12c1.16-.67,1-1.81-.25-2.54A4.94,4.94,0,0,0,92,99.57C90.86,100.24,91,101.38,92.27,102.11Z"/>
            <polygon class="cls-1"
                     points="6.82 72.07 9.01 73.31 71.67 108.77 104.67 89.69 107.88 87.83 43.02 51.13 11.17 69.55 11.17 69.56 6.82 72.07"/>
            <path class="cls-1"
                  d="M.5,69a5.34,5.34,0,0,0,2.35,4.44l0,0a5,5,0,0,0,.74.49l71.94,40.71c3,1.69,7.56,1.81,10.23.26l26.55-15.35a2.91,2.91,0,0,0,.29-.19,5.39,5.39,0,0,0,.78-.65.88.88,0,0,0,.13-.14,5.27,5.27,0,0,0-1-8c1.81,1.35,2.12,3.12.86,4.48a4.54,4.54,0,0,1-1.08.84l-5.8,3.36-20.75,12c-2.67,1.54-7.25,1.42-10.23-.27l-3.91-2.21L9,73.31,6.82,72.07l-3.18-1.8A5.58,5.58,0,0,1,2,68.94a2.59,2.59,0,0,1-.31-3.29A5.26,5.26,0,0,0,.5,69Z"/>
            <path class="cls-1"
                  d="M2,68.94a5.58,5.58,0,0,0,1.65,1.33l3.18,1.8,4.35-2.51h0L43,51.13l-3.17-1.8c-3-1.68-7.57-1.8-10.23-.26L3.39,64.25a1.13,1.13,0,0,0-.32.18,2.21,2.21,0,0,0-.32.21,2.2,2.2,0,0,0-.31.22l-.38.35a4,4,0,0,0-.28.31.63.63,0,0,0-.1.13A2.59,2.59,0,0,0,2,68.94Z"/>
            <polygon class="cls-2"
                     points="49.19 32.81 31.01 43.32 23.13 47.88 15.33 52.39 15.33 52.4 10.7 55.07 13.03 56.39 79.64 94.09 114.72 73.8 118.13 71.83 49.19 32.81"/>
            <polygon class="cls-3" points="32.05 0 33.9 21.34 29.04 24.8 27.19 3.45 32.05 0"/>
            <polygon class="cls-3" points="21.79 29.94 41.15 16.3 32.85 39.13 21.79 29.94"/>
            <polygon class="cls-3" points="56.09 13.29 57.94 34.63 53.08 38.08 51.23 16.74 56.09 13.29"/>
            <polygon class="cls-3" points="45.83 43.23 65.19 29.58 56.9 52.42 45.83 43.23"/>
            <polygon class="cls-3" points="80.19 27.71 82.03 49.06 77.17 52.51 75.33 31.16 80.19 27.71"/>
            <polygon class="cls-3" points="69.93 57.65 89.29 44.01 80.99 66.84 69.93 57.65"/>
        </g>
    </g>
</svg>